<svg width="56" height="57" viewBox="0 0 56 57" fill="none" xmlns="http://www.w3.org/2000/svg">
<path fill-rule="evenodd" clip-rule="evenodd" d="M28.756 13.4547L28.7433 13.443C28.7433 13.443 33.0782 9.35033 34.8218 8.172C37.828 6.13967 41.804 7.381 41.804 7.381C41.804 7.381 41.8575 10.7993 39.4215 12.1877C37.0975 13.513 34.8702 12.9647 34.6309 12.904C35.5345 11.7373 36.8022 10.1857 38.5025 9.40867C37.2476 9.34333 35.728 9.98267 34.5393 10.9977C33.572 11.8213 31.332 13.9307 30.5429 14.675V21.9083C33.2615 19.9017 38.2684 16.2173 39.7142 15.1953C43.7055 12.3673 49.1095 13.9773 49.1095 13.9773C49.1095 13.9773 49.1807 18.5577 45.9175 20.4173C42.8044 22.1907 38.9098 21.1127 38.5916 21.031C40.1316 19.4723 42.5702 18.0513 44.8458 17.013C42.56 16.7283 40.7375 17.3793 37.8484 19.4863C35.84 20.954 31.5076 24.1833 30.5429 24.902V32.371C33.6713 30.2033 40.096 25.812 43.0156 24.3163C50.2702 20.5993 56 23.6537 56 23.6537C56 23.6537 55.3305 29.6503 50.7538 31.6267C46.3909 33.512 40.9869 31.4493 40.5822 31.3C42.8553 29.4753 46.1745 27.877 49.7076 27.0627C46.3578 26.575 43.0233 26.6077 38.4695 29.893C36.0513 31.636 31.6858 34.5527 30.5429 35.3133L30.5455 56.5H25.4545L25.452 35.3133C24.3065 34.548 19.9487 31.636 17.5305 29.893C12.9767 26.6077 9.64218 26.575 6.29236 27.0627C9.82545 27.877 13.1447 29.4753 15.4178 31.3C15.0131 31.4493 9.60909 33.512 5.24618 31.6267C0.669455 29.6503 0 23.6537 0 23.6537C0 23.6537 5.72982 20.5993 12.9844 24.3163C15.9015 25.812 22.3262 30.1987 25.452 32.371V24.909C24.5102 24.2067 20.1549 20.9587 18.1364 19.4863C15.2473 17.3793 13.4247 16.7283 11.1389 17.013C13.4171 18.0513 15.8556 19.4723 17.3931 21.031C17.0749 21.1127 13.1804 22.1907 10.0698 20.4173C6.80655 18.5577 6.87782 13.9773 6.87782 13.9773C6.87782 13.9773 12.2793 12.3673 16.2731 15.1953C17.7189 16.2197 22.736 19.911 25.452 21.9153V14.6703C24.6604 13.9213 22.4255 11.819 21.4607 10.9977C20.272 9.98267 18.7524 9.34333 17.4975 9.40867C19.1978 10.1857 20.4655 11.7373 21.3691 12.904C21.1298 12.9647 18.9025 13.513 16.5785 12.1877C14.1425 10.7993 14.196 7.381 14.196 7.381C14.196 7.381 18.172 6.13967 21.1782 8.172C22.9218 9.35033 27.2567 13.443 27.2567 13.443L27.2415 13.4593L27.9975 14.1033L28.756 13.4547ZM36.1251 35.3553C37.1153 35.0333 41.272 33.8713 45.2455 35.6353C49.7967 37.656 50.4305 43.711 50.4305 43.711C50.4305 43.711 44.8865 47.0243 40.3047 44.992C35.9342 43.053 34.4578 38.839 34.3305 38.4563C37.3265 38.93 40.3455 39.8983 43.2244 41.5013C41.0684 39.0233 38.6858 37.0073 36.1251 35.3553ZM19.8749 35.3553C18.8847 35.0333 14.728 33.8713 10.7545 35.6353C6.20327 37.656 5.56945 43.711 5.56945 43.711C5.56945 43.711 11.1135 47.0243 15.6953 44.992C20.0658 43.053 21.5422 38.839 21.6695 38.4563C18.6735 38.93 15.6545 39.8983 12.7756 41.5013C14.9316 39.0233 17.3142 37.0073 19.8749 35.3553ZM29.2015 9.75167C29.6469 9.34333 31.4058 7.584 31.3931 5.15733C31.3804 2.38067 27.972 0.5 27.972 0.5C27.972 0.5 24.5815 2.39233 24.5967 5.18767C24.612 7.85467 26.7145 9.677 26.908 9.838C27.4018 8.23033 27.6105 6.485 27.412 4.64167C28.3156 6.35433 28.8884 8.05533 29.2015 9.75167Z" fill="white"/>
</svg>
