<svg width="54" height="57" viewBox="0 0 54 57" fill="none" xmlns="http://www.w3.org/2000/svg">
<path fill-rule="evenodd" clip-rule="evenodd" d="M11.7391 16.8333V0.5H42.2609V23.8333H54V56.5H0V16.8333H11.7391ZM11.7391 54.1667V44.8333H9.3913V54.1667H11.7391ZM30.5217 44.8333H23.4783V54.1667H30.5217V44.8333ZM44.6087 44.8333H42.2609V54.1667H44.6087V44.8333ZM49.3043 28.5H42.2609V42.5H46.9565V51.8333H49.3043V28.5ZM37.5652 5.16667H16.4348V51.8333H18.7826V40.1667H35.2174V51.8333H37.5652V5.16667ZM7.04348 51.8333V42.5H11.7391V21.5H4.69565V51.8333H7.04348ZM46.9565 37.8333H44.6087V33.1667H46.9565V37.8333ZM7.04348 33.1667H9.3913V37.8333H7.04348V33.1667ZM25.8261 35.5H21.1304V30.8333H25.8261V35.5ZM32.8696 35.5H28.1739V30.8333H32.8696V35.5ZM9.3913 26.1667V30.8333H7.04348V26.1667H9.3913ZM25.8261 28.5H21.1304V23.8333H25.8261V28.5ZM32.8696 28.5H28.1739V23.8333H32.8696V28.5ZM25.8261 21.5H21.1304V16.8333H25.8261V21.5ZM32.8696 21.5H28.1739V16.8333H32.8696V21.5ZM25.8261 14.5H21.1304V9.83333H25.8261V14.5ZM32.8696 14.5H28.1739V9.83333H32.8696V14.5Z" fill="#D65648"/>
</svg>
