<svg width="56" height="57" viewBox="0 0 56 57" fill="none" xmlns="http://www.w3.org/2000/svg">
<path fill-rule="evenodd" clip-rule="evenodd" d="M48.1227 53L44.3333 50.9723L40.5417 53L41.2977 48.7697L38.199 45.79L42.4573 45.202L44.3333 41.3333L46.2093 45.202L50.4677 45.79L47.3667 48.7697L48.1227 53ZM31.7893 53L28 50.9723L24.2083 53L24.9667 48.7697L21.8657 45.79L26.124 45.202L28 41.3333L29.876 45.202L34.1343 45.79L31.0333 48.7697L31.7893 53ZM15.456 53L11.6667 50.9723L7.875 53L8.63333 48.7697L5.53233 45.79L9.79067 45.202L11.6667 41.3333L13.5427 45.202L17.801 45.79L14.7 48.7697L15.456 53ZM53.6667 37.8333H2.33333C1.04533 37.8333 0 38.8763 0 40.1667V54.1667C0 55.457 1.04533 56.5 2.33333 56.5H53.6667C54.957 56.5 56 55.457 56 54.1667V40.1667C56 38.8763 54.957 37.8333 53.6667 37.8333ZM0.00466667 35.5H11.6667C11.6853 32.6673 11.6643 30.159 11.6667 28.4697C11.6783 19.1527 15.7477 21.199 15.7477 12.9227C15.7477 9.40633 13.454 7.5 10.5023 7.5C6.14133 7.5 3.108 11.6697 7.238 19.4677C8.59367 22.032 5.79133 22.6387 2.78133 23.334C0.172667 23.936 0 25.777 0 27.9843L0.00466667 35.5ZM53.2187 23.334C50.2087 22.6387 47.4063 22.032 48.762 19.4677C52.892 11.6697 49.8587 7.5 45.4977 7.5C42.546 7.5 40.2523 9.40633 40.2523 12.9227C40.2523 20.6787 44.2633 19.232 44.3333 28.5C44.352 30.768 44.3123 31.559 44.3333 35.5H55.9953L56 27.9843C56 25.777 55.8273 23.936 53.2187 23.334ZM41.993 35.5H14.0047L14 28.206C14 25.2707 14.2333 22.4147 17.7053 21.612C21.6347 20.7043 25.508 19.8947 23.6437 16.4577C18.123 6.275 22.071 0.5 27.9977 0.5C33.81 0.5 37.8583 6.06033 32.3517 16.4577C30.5433 19.8737 34.279 20.6857 38.29 21.612C41.7667 22.4147 41.9977 25.273 41.9977 28.213L41.993 35.5Z" fill="#D65648"/>
</svg>
