<svg width="56" height="57" viewBox="0 0 56 57" fill="none" xmlns="http://www.w3.org/2000/svg">
<path d="M39.5652 15.1087C40.5732 15.1087 41.3913 15.9268 41.3913 16.9348V40.0652C41.3913 41.0732 40.5732 41.8913 39.5652 41.8913H16.4348C15.4268 41.8913 14.6087 41.0732 14.6087 40.0652V16.9348C14.6087 15.9268 15.4268 15.1087 16.4348 15.1087H39.5652ZM46.2609 15.1087C46.2609 12.4207 44.0793 10.2391 41.3913 10.2391H14.6087C11.9207 10.2391 9.73913 12.4207 9.73913 15.1087V41.8913C9.73913 44.5793 11.9207 46.7609 14.6087 46.7609H41.3913C44.0793 46.7609 46.2609 44.5793 46.2609 41.8913V15.1087ZM19.4783 49.1956V56.5H17.0435V49.1956H19.4783ZM29.2174 49.1956V56.5H26.7826V49.1956H29.2174ZM34.087 49.1956V56.5H31.6522V49.1956H34.087ZM24.3478 49.1956V56.5H21.913V49.1956H24.3478ZM38.9565 49.1956V56.5H36.5217V49.1956H38.9565ZM19.4783 0.5V7.80435H17.0435V0.5H19.4783ZM29.2174 0.5V7.80435H26.7826V0.5H29.2174ZM34.087 0.5V7.80435H31.6522V0.5H34.087ZM24.3478 0.5V7.80435H21.913V0.5H24.3478ZM38.9565 0.5V7.80435H36.5217V0.5H38.9565ZM48.6956 37.0217H56V39.4565H48.6956V37.0217ZM48.6956 27.2826H56V29.7174H48.6956V27.2826ZM48.6956 22.413H56V24.8478H48.6956V22.413ZM48.6956 32.1522H56V34.587H48.6956V32.1522ZM48.6956 17.5435H56V19.9783H48.6956V17.5435ZM0 37.0217H7.30435V39.4565H0V37.0217ZM0 27.2826H7.30435V29.7174H0V27.2826ZM0 22.413H7.30435V24.8478H0V22.413ZM0 32.1522H7.30435V34.587H0V32.1522ZM0 17.5435H7.30435V19.9783H0V17.5435Z" fill="#D65648"/>
</svg>
