<svg width="47" height="57" viewBox="0 0 47 57" fill="none" xmlns="http://www.w3.org/2000/svg">
<path d="M19.3029 16.7563C18.2783 17.3677 17.4393 18.1563 16.7484 19.0407L14.4384 18.2473C15.3666 16.8777 16.5722 15.6667 18.0879 14.759C19.606 13.849 21.2463 13.3543 22.8984 13.1793L22.5271 15.5803C21.4179 15.774 20.3228 16.145 19.3029 16.7563ZM23.265 10.7877L23.6269 8.431C20.9009 8.51733 18.1608 9.26633 15.658 10.7643C13.1576 12.2623 11.2118 14.3203 9.8653 16.677L12.1354 17.4563C13.2775 15.592 14.8661 13.9633 16.8753 12.7617C18.8822 11.5577 21.0724 10.9207 23.265 10.7877ZM28.2 23.8333C28.2 26.4117 26.0967 28.5 23.5 28.5C20.9032 28.5 18.8 26.4117 18.8 23.8333C18.8 21.255 20.9032 19.1667 23.5 19.1667C26.0967 19.1667 28.2 21.255 28.2 23.8333ZM25.85 23.8333C25.85 22.5477 24.7948 21.5 23.5 21.5C22.2051 21.5 21.15 22.5477 21.15 23.8333C21.15 25.119 22.2051 26.1667 23.5 26.1667C24.7948 26.1667 25.85 25.119 25.85 23.8333ZM47 0.5V56.5H18.8V53C18.8 52.356 18.2736 51.8333 17.625 51.8333C16.9764 51.8333 16.45 52.356 16.45 53V56.5H14.1V53C14.1 52.356 13.5736 51.8333 12.925 51.8333C12.2764 51.8333 11.75 52.356 11.75 53V56.5H9.4V53C9.4 52.356 8.8736 51.8333 8.225 51.8333C7.5764 51.8333 7.05 52.356 7.05 53V56.5H0V0.5H47ZM38.8126 43.5453C37.1511 41.5993 32.6321 36.3563 31.8307 35.2853C30.6252 33.6683 28.717 34.6413 29.4525 36.585C30.0447 38.1577 32.4253 44.4087 33.424 46.931C35.6025 52.4167 42.6854 48.086 38.8126 43.5453ZM42.3 23.8333C42.3 13.5247 33.8823 5.16667 23.5 5.16667C13.1177 5.16667 4.7 13.5247 4.7 23.8333C4.7 34.142 13.1177 42.5 23.5 42.5C25.3753 42.5 27.1824 42.22 28.8909 41.7113L27.2529 37.404C25.5609 32.9403 30.9049 30.124 33.7155 33.8923C34.0585 34.3473 35.2336 35.7473 36.5284 37.2687C40.0816 33.876 42.3 29.116 42.3 23.8333Z" fill="#D65648"/>
</svg>
