<svg width="56" height="57" viewBox="0 0 56 57" fill="none" xmlns="http://www.w3.org/2000/svg">
<path fill-rule="evenodd" clip-rule="evenodd" d="M23.3333 54.1667C23.3333 51.5883 25.4217 49.5 28 49.5H32.6667C33.9033 49.5 35.091 49.9923 35.966 50.8673C36.841 51.7423 37.3333 52.93 37.3333 54.1667V56.5H23.3333V54.1667ZM42 54.1667C42 51.5883 44.0883 49.5 46.6667 49.5H51.3333C52.57 49.5 53.7577 49.9923 54.6327 50.8673C55.5077 51.7423 56 52.93 56 54.1667V56.5H42V54.1667ZM15.771 21.5C17.2853 21.5 18.788 21.003 19.719 20.4827C21.4807 19.5027 26.0073 16.649 27.8507 15.5267C28.3547 15.221 29.0057 15.333 29.3767 15.7903L29.3953 15.816C29.7803 16.292 29.736 16.9803 29.295 17.4027C27.8437 18.7957 23.5947 22.8347 21.4317 24.8997C20.2137 26.064 19.5137 27.66 19.4413 29.3423C19.2197 34.492 18.8323 45.4703 18.669 49.9527C18.6293 51.0027 17.766 51.8333 16.716 51.8333H16.7137C15.6777 51.8333 14.8797 51.0237 14.763 49.9947C14.504 47.7057 13.9953 42.3413 13.769 40.1667C13.6757 39.2707 13.1157 38.7363 12.404 38.7317C11.6947 38.7293 11.1837 39.259 11.123 40.1527C10.9807 42.3017 10.5047 47.7313 10.3273 49.9993C10.248 51.0307 9.401 51.8333 8.36733 51.8333H8.365C7.31033 51.8333 6.44233 51.0003 6.40033 49.948C6.174 44.4833 5.53933 29.032 5.53933 29.032L2.53633 34.4687C2.20967 35.059 1.498 35.318 0.868 35.0753H0.865667C0.214667 34.8233 -0.137667 34.1163 0.0513333 33.4467L2.954 23.1963C3.23867 22.193 4.15567 21.5 5.19867 21.5H15.771ZM30.3333 37.8333C33.2313 37.8333 35.5833 40.1853 35.5833 43.0833C35.5833 45.9813 33.2313 48.3333 30.3333 48.3333C27.4353 48.3333 25.0833 45.9813 25.0833 43.0833C25.0833 40.1853 27.4353 37.8333 30.3333 37.8333ZM49 37.8333C51.898 37.8333 54.25 40.1853 54.25 43.0833C54.25 45.9813 51.898 48.3333 49 48.3333C46.102 48.3333 43.75 45.9813 43.75 43.0833C43.75 40.1853 46.102 37.8333 49 37.8333ZM56 35.5H23.3333V30.8333H39.6667V28.5H46.6667V30.8333H51.3333V5.16667H4.66667V15.3307L0 19.9973V0.5H56V35.5ZM39.6667 23.8333H32.6667V21.5H39.6667V23.8333ZM12.5393 9.83333C15.435 9.83333 17.7893 12.1853 17.7893 15.0833C17.7893 17.9813 15.435 20.3333 12.5393 20.3333C9.64133 20.3333 7.28933 17.9813 7.28933 15.0833C7.28933 12.1853 9.64133 9.83333 12.5393 9.83333ZM46.6667 19.1667H32.6667V16.8333H46.6667V19.1667ZM46.6667 14.5H32.6667V12.1667H46.6667V14.5Z" fill="white"/>
</svg>
