<svg width="51" height="57" viewBox="0 0 51 57" fill="none" xmlns="http://www.w3.org/2000/svg">
<path fill-rule="evenodd" clip-rule="evenodd" d="M25.4977 52.4073C24.5056 52.4073 22.9502 50.753 21.5849 47.0967C20.2428 47.785 19.0769 48.3263 17.9434 48.8187C19.7213 53.4667 22.2502 56.5 25.4977 56.5C28.8356 56.5 31.4131 53.301 33.198 48.4453C32.0738 47.9763 30.887 47.442 29.5333 46.7677C28.1448 50.6573 26.5245 52.4073 25.4977 52.4073ZM14.5824 47.2367C7.39896 49.8943 0.00231808 49.962 0.00231808 43.4007C0.00231808 41.2097 1.01064 38.1343 4.16539 33.876C5.51213 32.0583 7.07213 30.271 8.6553 28.6307C12.2041 25.0023 16.2026 21.514 21.4157 17.8997C18.9054 16.509 16.1678 15.1767 13.4975 14.1897C10.7623 13.1747 8.35397 12.6123 6.50886 12.6123C5.33133 12.6123 4.45514 12.862 4.17003 13.2843C3.86174 13.7323 3.85015 15.1137 5.20153 17.5847L5.6883 17.5543C8.11522 17.5543 10.0878 19.575 10.0878 22.0647C10.0878 24.5543 8.11522 26.5703 5.6883 26.5703C3.25907 26.5703 1.29111 24.5543 1.29111 22.0647C1.29111 21.2573 1.49741 20.5013 1.85901 19.8457C0.49141 17.419 0 15.5057 0 14.0053C0 10.4703 2.67494 8.51267 6.50886 8.51267C12.3362 8.51267 20.1849 12.3907 25.2427 15.3867C30.3747 12.2063 38.4945 8.01567 44.4911 8.01567C48.8791 8.01567 50.9977 10.475 50.9977 13.604C50.9977 15.795 49.987 18.868 46.8346 23.124C39.686 32.777 25.4722 43.2047 14.5824 47.2367ZM49.1595 37.1917C49.4887 36.5617 49.6695 35.8477 49.6695 35.087C49.6695 32.595 47.7015 30.5767 45.2723 30.5767C42.8431 30.5767 40.8751 32.595 40.8751 35.087C40.8751 37.5743 42.8431 39.5903 45.2723 39.5903L45.8703 39.5507C47.1498 41.94 47.1313 43.277 46.8323 43.7203C46.5449 44.1427 45.671 44.39 44.4911 44.39C40.7777 44.39 35.6064 42.1873 32.2754 40.5237C31.1628 41.3217 29.7836 42.269 28.4346 43.1347C32.8966 45.552 39.4611 48.4897 44.4911 48.4897C48.2926 48.4897 51 46.553 51 42.997C51 41.5083 50.5109 39.602 49.1595 37.1917ZM19.4107 37.4693H19.4084L19.3782 37.446C16.7265 35.556 14.1118 33.4793 11.6895 31.307C5.1598 38.02 3.31933 42.8873 4.18394 44.1963C4.476 44.6373 5.32438 44.894 6.50886 44.894C11.9561 44.894 20.6021 40.1853 25.7179 36.809C31.9973 32.6673 39.1621 26.7103 43.6497 20.6483C47.1406 15.9397 47.2472 13.4593 46.8161 12.806C46.524 12.3627 45.6779 12.1107 44.4911 12.1107C39.9665 12.1107 33.0774 15.515 29.1091 17.8203C32.0367 19.771 34.7719 21.8313 37.2683 23.9243C36.3226 24.8927 35.3351 25.8353 34.3245 26.75C31.5522 24.4587 28.474 22.2093 25.2821 20.1933C21.6174 22.6107 17.9272 25.4527 14.6125 28.4813C17.1043 30.7003 20.0736 33.029 23.2377 35.185C22.0277 35.9573 20.8061 36.6947 19.4107 37.4693ZM25.4977 23.8333C28.0567 23.8333 30.1336 25.924 30.1336 28.5C30.1336 31.076 28.0567 33.1667 25.4977 33.1667C22.9386 33.1667 20.8617 31.076 20.8617 28.5C20.8617 25.924 22.9386 23.8333 25.4977 23.8333ZM21.4667 10.2347C20.1223 9.56967 18.9286 9.026 17.802 8.55933C19.5869 3.70133 22.1644 0.5 25.4977 0.5C28.7498 0.5 31.281 3.538 33.0566 8.18133C31.9208 8.676 30.7479 9.22433 29.4127 9.90567C28.0521 6.24933 26.4967 4.59733 25.4977 4.59733C24.4755 4.59733 22.8575 6.34733 21.4667 10.2347Z" fill="white"/>
</svg>
