<svg width="75" height="56" viewBox="0 0 75 56" fill="none" xmlns="http://www.w3.org/2000/svg">
<path d="M68.8812 39.316C69.0687 40.1093 68.0156 40.604 67.6594 39.764C67.2344 38.7374 66.5469 34.3696 65.95 29.977C65.6281 27.6251 62.4906 27.9144 62.5 30.3441C62.5094 34.1239 62.5063 37.2753 62.5 42.8718C62.4937 47.6471 64.6781 47.7405 66.2906 53.0975C66.5656 54.0183 66.8031 55.0201 66.9969 56L75 53.2157C72.2094 47.7809 73.5563 43.4909 73.8344 39.9787C74.2156 35.1785 72.9344 34.7119 66.9844 28.9411C67.3406 31.4796 68.0844 35.9873 68.8812 39.316V39.316ZM8.01563 28.9442C2.06563 34.7118 0.784375 35.1816 1.16562 39.9818C1.44375 43.4909 2.79063 47.7809 0 53.2157L8.00625 55.9969C8.2 55.0201 8.4375 54.0152 8.7125 53.0944C10.3219 47.7405 12.5063 47.644 12.5 42.8687C12.4937 37.269 12.4906 34.1208 12.5 30.341C12.5094 27.9113 9.36875 27.622 9.05 29.9739C8.45625 34.3665 7.76562 38.7343 7.34062 39.7609C6.9875 40.604 5.93437 40.1062 6.11875 39.3129C6.91562 35.9873 7.65938 31.4796 8.01563 28.9442V28.9442ZM15.625 43.5531L15.6375 37.3313H59.3625L59.375 43.5531H15.625V43.5531ZM9.375 25.4506V4.66641C9.375 2.09055 11.475 0 14.0625 0H60.9375C63.525 0 65.625 2.09055 65.625 4.66641V25.4506C65.1938 25.3261 64.7437 25.2484 64.2625 25.2484C62.9812 25.2453 61.725 25.7648 60.8187 26.6701C59.9156 27.5722 59.4156 28.8042 59.3719 30.1481V6.22188H15.625V30.1419C15.5812 28.798 15.0813 27.5691 14.1781 26.667C13.2719 25.7617 12.0187 25.2453 10.7344 25.2453C10.2594 25.2453 9.80937 25.3261 9.375 25.4506V25.4506Z" fill="white"/>
</svg>
